<mxfile host="Electron" modified="2024-05-28T03:07:11.045Z" agent="Mozilla/5.0 (Windows NT 10.0; Win64; x64) AppleWebKit/537.36 (KHTML, like Gecko) draw.io/24.4.0 Chrome/120.0.6099.109 Electron/28.1.0 Safari/537.36" etag="92MwJsrKsNRraAzK234s" version="24.4.0" type="device">
  <diagram name="Page-1" id="6V-F49_OrAbm-ivBqpF-">
    <mxGraphModel dx="836" dy="538" grid="1" gridSize="10" guides="1" tooltips="1" connect="1" arrows="1" fold="1" page="1" pageScale="1" pageWidth="850" pageHeight="1100" math="0" shadow="0">
      <root>
        <mxCell id="0" />
        <mxCell id="1" parent="0" />
        <mxCell id="i5WH-FcULXQFqrXrjjIh-65" style="edgeStyle=orthogonalEdgeStyle;rounded=0;orthogonalLoop=1;jettySize=auto;html=1;" edge="1" parent="1" source="i5WH-FcULXQFqrXrjjIh-1">
          <mxGeometry relative="1" as="geometry">
            <mxPoint x="140" y="246.39999999999998" as="targetPoint" />
          </mxGeometry>
        </mxCell>
        <mxCell id="i5WH-FcULXQFqrXrjjIh-1" value="&lt;font style=&quot;font-size: 12px;&quot;&gt;UsuÃ¡rios&lt;/font&gt;&lt;div&gt;&lt;br&gt;&lt;/div&gt;" style="sketch=0;outlineConnect=0;fontColor=#232F3E;gradientColor=none;strokeColor=#232F3E;fillColor=#ffffff;dashed=0;verticalLabelPosition=bottom;verticalAlign=top;align=center;html=1;fontSize=12;fontStyle=0;aspect=fixed;shape=mxgraph.aws4.resourceIcon;resIcon=mxgraph.aws4.user;" vertex="1" parent="1">
          <mxGeometry x="10" y="223.25" width="46.75" height="46.75" as="geometry" />
        </mxCell>
        <mxCell id="i5WH-FcULXQFqrXrjjIh-17" value="" style="whiteSpace=wrap;html=1;aspect=fixed;dashed=1;fillColor=none;strokeColor=#999999;fontColor=#B8FF5C;" vertex="1" parent="1">
          <mxGeometry x="104.5" y="191" width="120" height="120" as="geometry" />
        </mxCell>
        <mxCell id="i5WH-FcULXQFqrXrjjIh-25" value="&lt;font style=&quot;font-size: 10px;&quot; color=&quot;#808080&quot;&gt;Multi-AZ&lt;/font&gt;" style="text;html=1;align=center;verticalAlign=middle;resizable=0;points=[];autosize=1;strokeColor=none;fillColor=none;" vertex="1" parent="1">
          <mxGeometry x="134.5" y="191" width="60" height="30" as="geometry" />
        </mxCell>
        <mxCell id="i5WH-FcULXQFqrXrjjIh-90" value="" style="edgeStyle=orthogonalEdgeStyle;rounded=0;orthogonalLoop=1;jettySize=auto;html=1;" edge="1" parent="1" source="i5WH-FcULXQFqrXrjjIh-12" target="i5WH-FcULXQFqrXrjjIh-28">
          <mxGeometry relative="1" as="geometry" />
        </mxCell>
        <mxCell id="i5WH-FcULXQFqrXrjjIh-12" value="&lt;font style=&quot;font-size: 11px;&quot;&gt;API Gateway&lt;/font&gt;&lt;div style=&quot;font-size: 11px;&quot;&gt;&lt;br&gt;&lt;/div&gt;" style="sketch=0;points=[[0,0,0],[0.25,0,0],[0.5,0,0],[0.75,0,0],[1,0,0],[0,1,0],[0.25,1,0],[0.5,1,0],[0.75,1,0],[1,1,0],[0,0.25,0],[0,0.5,0],[0,0.75,0],[1,0.25,0],[1,0.5,0],[1,0.75,0]];outlineConnect=0;fontColor=#232F3E;fillColor=#DB3333;strokeColor=#ffffff;dashed=0;verticalLabelPosition=bottom;verticalAlign=top;align=center;html=1;fontSize=12;fontStyle=0;aspect=fixed;shape=mxgraph.aws4.resourceIcon;resIcon=mxgraph.aws4.api_gateway;" vertex="1" parent="1">
          <mxGeometry x="360" y="223.25" width="45.75" height="45.75" as="geometry" />
        </mxCell>
        <mxCell id="i5WH-FcULXQFqrXrjjIh-70" style="edgeStyle=orthogonalEdgeStyle;rounded=0;orthogonalLoop=1;jettySize=auto;html=1;" edge="1" parent="1" source="i5WH-FcULXQFqrXrjjIh-69" target="i5WH-FcULXQFqrXrjjIh-12">
          <mxGeometry relative="1" as="geometry" />
        </mxCell>
        <mxCell id="i5WH-FcULXQFqrXrjjIh-69" value="&lt;font style=&quot;font-size: 11px;&quot;&gt;Network Load Balancer&lt;/font&gt;" style="sketch=0;outlineConnect=0;fontColor=#232F3E;gradientColor=none;fillColor=#8C4FFF;strokeColor=none;dashed=0;verticalLabelPosition=bottom;verticalAlign=top;align=center;html=1;fontSize=12;fontStyle=0;aspect=fixed;pointerEvents=1;shape=mxgraph.aws4.network_load_balancer;" vertex="1" parent="1">
          <mxGeometry x="140" y="221" width="49" height="49" as="geometry" />
        </mxCell>
        <mxCell id="i5WH-FcULXQFqrXrjjIh-71" value="&lt;font style=&quot;font-size: 11px;&quot;&gt;VPC Link&lt;/font&gt;" style="sketch=0;outlineConnect=0;fontColor=#232F3E;gradientColor=none;fillColor=#8C4FFF;strokeColor=none;dashed=0;verticalLabelPosition=bottom;verticalAlign=top;align=center;html=1;fontSize=12;fontStyle=0;aspect=fixed;pointerEvents=1;shape=mxgraph.aws4.endpoints;" vertex="1" parent="1">
          <mxGeometry x="270" y="196" width="25" height="25" as="geometry" />
        </mxCell>
        <mxCell id="i5WH-FcULXQFqrXrjjIh-83" value="VPC" style="points=[[0,0],[0.25,0],[0.5,0],[0.75,0],[1,0],[1,0.25],[1,0.5],[1,0.75],[1,1],[0.75,1],[0.5,1],[0.25,1],[0,1],[0,0.75],[0,0.5],[0,0.25]];outlineConnect=0;html=1;whiteSpace=wrap;fontSize=12;fontStyle=0;container=1;pointerEvents=0;collapsible=0;recursiveResize=0;shape=mxgraph.aws4.group;grIcon=mxgraph.aws4.group_vpc2;strokeColor=#82b366;fillColor=none;verticalAlign=top;align=left;spacingLeft=30;dashed=0;" vertex="1" parent="1">
          <mxGeometry x="80" y="66.13" width="760" height="360" as="geometry" />
        </mxCell>
        <mxCell id="i5WH-FcULXQFqrXrjjIh-28" value="" style="whiteSpace=wrap;html=1;aspect=fixed;dashed=1;fillColor=none;strokeColor=#d79b00;" vertex="1" parent="i5WH-FcULXQFqrXrjjIh-83">
          <mxGeometry x="430" y="65" width="230" height="230" as="geometry" />
        </mxCell>
        <mxCell id="i5WH-FcULXQFqrXrjjIh-10" value="" style="sketch=0;points=[[0,0,0],[0.25,0,0],[0.5,0,0],[0.75,0,0],[1,0,0],[0,1,0],[0.25,1,0],[0.5,1,0],[0.75,1,0],[1,1,0],[0,0.25,0],[0,0.5,0],[0,0.75,0],[1,0.25,0],[1,0.5,0],[1,0.75,0]];outlineConnect=0;fontColor=#232F3E;fillColor=#ED7100;strokeColor=#ffffff;dashed=0;verticalLabelPosition=bottom;verticalAlign=top;align=center;html=1;fontSize=12;fontStyle=0;aspect=fixed;shape=mxgraph.aws4.resourceIcon;resIcon=mxgraph.aws4.auto_scaling2;" vertex="1" parent="i5WH-FcULXQFqrXrjjIh-83">
          <mxGeometry x="430" y="63.87" width="30" height="30" as="geometry" />
        </mxCell>
        <mxCell id="i5WH-FcULXQFqrXrjjIh-97" value="" style="edgeStyle=orthogonalEdgeStyle;rounded=0;orthogonalLoop=1;jettySize=auto;html=1;" edge="1" parent="i5WH-FcULXQFqrXrjjIh-83" source="i5WH-FcULXQFqrXrjjIh-87" target="i5WH-FcULXQFqrXrjjIh-91">
          <mxGeometry relative="1" as="geometry" />
        </mxCell>
        <mxCell id="i5WH-FcULXQFqrXrjjIh-87" value="&lt;font style=&quot;font-size: 11px;&quot;&gt;X-Ray side car&lt;/font&gt;" style="outlineConnect=0;dashed=0;verticalLabelPosition=bottom;verticalAlign=top;align=center;html=1;shape=mxgraph.aws3.x_ray;fillColor=#759C3E;gradientColor=none;" vertex="1" parent="i5WH-FcULXQFqrXrjjIh-83">
          <mxGeometry x="570" y="152.44" width="45" height="45" as="geometry" />
        </mxCell>
        <mxCell id="i5WH-FcULXQFqrXrjjIh-91" value="&lt;font style=&quot;font-size: 11px;&quot;&gt;Container&amp;nbsp;&lt;/font&gt;" style="sketch=0;outlineConnect=0;fontColor=#232F3E;gradientColor=none;strokeColor=#FF8000;fillColor=none;dashed=0;verticalLabelPosition=bottom;verticalAlign=top;align=center;html=1;fontSize=12;fontStyle=0;aspect=fixed;shape=mxgraph.aws4.resourceIcon;resIcon=mxgraph.aws4.container_1;" vertex="1" parent="i5WH-FcULXQFqrXrjjIh-83">
          <mxGeometry x="470" y="144.94" width="60" height="60" as="geometry" />
        </mxCell>
        <mxCell id="i5WH-FcULXQFqrXrjjIh-36" value="&lt;font style=&quot;font-size: 10px;&quot; color=&quot;#eb9f1c&quot;&gt;AutoScaling Group&lt;/font&gt;" style="text;html=1;align=center;verticalAlign=middle;resizable=0;points=[];autosize=1;strokeColor=none;fillColor=none;" vertex="1" parent="i5WH-FcULXQFqrXrjjIh-83">
          <mxGeometry x="495" y="63.87" width="110" height="30" as="geometry" />
        </mxCell>
        <mxCell id="i5WH-FcULXQFqrXrjjIh-32" value="&lt;font style=&quot;font-size: 10px;&quot; color=&quot;#808080&quot;&gt;Multi-AZ&lt;/font&gt;" style="text;html=1;align=center;verticalAlign=middle;resizable=0;points=[];autosize=1;strokeColor=none;fillColor=none;" vertex="1" parent="i5WH-FcULXQFqrXrjjIh-83">
          <mxGeometry x="520" y="103.87" width="60" height="30" as="geometry" />
        </mxCell>
        <mxCell id="i5WH-FcULXQFqrXrjjIh-98" value="" style="edgeStyle=orthogonalEdgeStyle;rounded=0;orthogonalLoop=1;jettySize=auto;html=1;" edge="1" parent="i5WH-FcULXQFqrXrjjIh-83" source="i5WH-FcULXQFqrXrjjIh-95" target="i5WH-FcULXQFqrXrjjIh-87">
          <mxGeometry relative="1" as="geometry" />
        </mxCell>
        <mxCell id="i5WH-FcULXQFqrXrjjIh-95" value="&lt;font style=&quot;font-size: 11px;&quot;&gt;X-Ray&lt;/font&gt;" style="sketch=0;points=[[0,0,0],[0.25,0,0],[0.5,0,0],[0.75,0,0],[1,0,0],[0,1,0],[0.25,1,0],[0.5,1,0],[0.75,1,0],[1,1,0],[0,0.25,0],[0,0.5,0],[0,0.75,0],[1,0.25,0],[1,0.5,0],[1,0.75,0]];outlineConnect=0;fontColor=#232F3E;fillColor=#000066;strokeColor=#ffffff;dashed=0;verticalLabelPosition=bottom;verticalAlign=top;align=center;html=1;fontSize=12;fontStyle=0;aspect=fixed;shape=mxgraph.aws4.resourceIcon;resIcon=mxgraph.aws4.xray;" vertex="1" parent="i5WH-FcULXQFqrXrjjIh-83">
          <mxGeometry x="700" y="151.16" width="47.56" height="47.56" as="geometry" />
        </mxCell>
        <mxCell id="i5WH-FcULXQFqrXrjjIh-50" value="" style="whiteSpace=wrap;html=1;aspect=fixed;dashed=1;fillColor=none;strokeColor=#999999;fontColor=#B8FF5C;" vertex="1" parent="i5WH-FcULXQFqrXrjjIh-83">
          <mxGeometry x="465.19" y="103.86999999999999" width="169.62" height="169.62" as="geometry" />
        </mxCell>
        <mxCell id="i5WH-FcULXQFqrXrjjIh-39" value="&lt;font color=&quot;#cc0000&quot; style=&quot;font-size: 10px;&quot;&gt;Health Checker&lt;/font&gt;" style="shape=mxgraph.signs.healthcare.cardiology;html=1;pointerEvents=1;fillColor=none;strokeColor=#b85450;verticalLabelPosition=bottom;verticalAlign=top;align=center;" vertex="1" parent="i5WH-FcULXQFqrXrjjIh-83">
          <mxGeometry x="360" y="303.87" width="20" height="20" as="geometry" />
        </mxCell>
        <mxCell id="i5WH-FcULXQFqrXrjjIh-104" value="" style="edgeStyle=orthogonalEdgeStyle;rounded=0;orthogonalLoop=1;jettySize=auto;html=1;entryX=0;entryY=0.5;entryDx=0;entryDy=0;" edge="1" parent="i5WH-FcULXQFqrXrjjIh-83" source="i5WH-FcULXQFqrXrjjIh-39" target="i5WH-FcULXQFqrXrjjIh-50">
          <mxGeometry relative="1" as="geometry">
            <mxPoint x="460" y="380.13" as="sourcePoint" />
            <mxPoint x="545" y="255.13" as="targetPoint" />
          </mxGeometry>
        </mxCell>
      </root>
    </mxGraphModel>
  </diagram>
</mxfile>
